Coordinates
version=1
nRows=14
nColumns=36
inDegrees=yes

Units are S.I. units (second, meters, Newtons, ...)
If the header above contains a line with 'inDegrees', this indicates whether rotational values are in degrees (yes) or radians (no).

endheader
time	pelvis_tilt	pelvis_list	pelvis_rotation	pelvis_tx	pelvis_ty	pelvis_tz	hip_flexion_r	hip_adduction_r	hip_rotation_r	knee_angle_r	knee_angle_r_beta	ankle_angle_r	subtalar_angle_r	mtp_angle_r	hip_flexion_l	hip_adduction_l	hip_rotation_l	knee_angle_l	knee_angle_l_beta	ankle_angle_l	subtalar_angle_l	mtp_angle_l	lumbar_extension	lumbar_bending	lumbar_rotation	arm_flex_r	arm_add_r	arm_rot_r	elbow_flex_r	pro_sup_r	arm_flex_l	arm_add_l	arm_rot_l	elbow_flex_l	pro_sup_l
      0.00000000	      3.34687991	      1.44126927	      2.51200445	      0.01104106	      1.32612175	      0.04058332	     -4.15907168	     -0.99663101	      0.06791199	      2.11186436	      0.03685899	      7.10380876	     -3.80533848	     -5.88748667	     -3.56572414	      1.06962413	     -1.71613324	      1.71448706	      0.02992344	      1.71987843	     -6.44816960	     -5.88748667	     -7.87648892	     -0.94640535	     -4.86658628	      2.47754933	     -6.87747909	     19.73045059	     25.66887169	     73.07638414	      1.88340859	     -9.13015572	     22.34003467	     27.26127998	     67.84524592
      0.01666670	      2.27996358	      1.15080319	      2.29329019	      0.01102774	      1.32285095	      0.04044770	     -3.32396149	     -0.57574997	      0.79405754	      1.30935963	      0.02285264	      7.95039535	     -1.82579655	     -6.42207673	     -2.81262273	      0.83989928	     -3.58438037	      0.90649880	      0.01582139	      2.03322720	     -5.00102505	     -6.42207673	     -5.52909100	     -0.63369355	     -4.84708395	      2.41284878	     -6.64514407	     18.45412853	     25.28638661	     71.61915926	      1.42554409	     -8.55622328	     21.37120443	     27.02759913	     67.00581615
      0.03333330	      1.24301214	      1.17037194	      1.72628185	      0.01225969	      1.32030946	      0.04158633	     -2.38752183	     -0.53508471	      1.20013967	      0.89173767	      0.01556376	      7.98596065	     -2.17851972	     -7.04799478	     -1.75677311	      1.04787413	     -5.12632950	      0.84183687	      0.01469283	      2.81871339	     -3.45514292	     -7.04799478	     -4.18617714	     -0.99374158	     -4.04555608	      1.69660255	     -5.79212757	     12.72932941	     25.84264408	     79.15640802	      1.39186232	     -8.20572731	     18.73743122	     26.65498159	     73.52206904
      0.05000000	      1.02091071	      1.23637838	      1.48615373	      0.01191469	      1.31890278	      0.04224806	     -2.09559530	     -0.55657634	      1.46537936	      0.70698172	      0.01233916	      8.19164630	     -1.72713176	     -7.31266520	     -1.67518445	      1.18058683	     -6.18639987	      0.61458768	      0.01072658	      3.64693508	     -2.02893938	     -7.31266520	     -3.83776844	     -1.31363017	     -3.77476781	      1.59813348	     -5.49745335	     12.89922353	     25.91954737	     74.42130634	      1.49144409	     -8.28221873	     19.16560315	     26.56169505	     70.40649588
      0.06666670	      0.73349175	      1.19335759	      1.37159167	      0.01278550	      1.31793849	      0.04298727	     -1.81997891	     -0.46227581	      2.01422715	      0.61458889	      0.01072660	      8.08503823	     -2.29489789	     -7.40267776	     -1.44722967	      1.15762723	     -6.38591233	      0.50508040	      0.00881532	      4.11949402	     -1.95836823	     -7.40267776	     -3.55262511	     -1.31649946	     -3.45540724	      1.13283230	     -5.28944729	     11.81250838	     26.87958685	     70.24961306	      1.19238003	     -8.12903583	     18.11767963	     27.45222606	     67.49626501
      0.08333330	      0.30430687	      1.19429081	      1.13448604	      0.01122407	      1.31955112	      0.04200999	     -1.33987763	     -0.50821831	      2.31627197	      0.59262094	      0.01034319	      7.88733198	     -2.23002449	     -7.42027816	     -1.00448079	      1.21576401	     -7.02701623	      0.47100318	      0.00822056	      4.67152057	     -0.68386691	     -7.42027816	     -2.87391053	     -1.31070488	     -3.03534560	      1.13959056	     -5.64127293	     13.06306860	     26.47237416	     77.68141420	      1.37892180	     -8.16807154	     19.08511987	     27.08451189	     75.36402864
      0.10000000	      0.11282842	      1.13557354	      1.07384630	      0.01098399	      1.31831467	      0.04252929	     -1.13319068	     -0.45583879	      2.57063994	      0.56190509	      0.00980709	      7.80232572	     -2.29141573	     -7.42954583	     -0.79132490	      1.16420367	     -6.99072900	      0.45345234	      0.00791424	      4.80397379	     -0.55545859	     -7.42954583	     -2.64630861	     -1.24845388	     -2.92253356	      0.92419955	     -5.58947571	     12.84562351	     27.06290676	     76.98458475	      1.21327064	     -8.13548774	     18.69068173	     27.74162386	     74.89407503
      0.11666670	     -0.20798285	      1.10400342	      0.92133029	      0.01131125	      1.31738235	      0.04268377	     -0.79567664	     -0.44142220	      2.93583510	      0.55911437	      0.00975839	      7.55514515	     -2.48579964	     -7.45899175	     -0.43447316	      1.13674715	     -7.27940883	      0.45476497	      0.00793715	      5.09003727	      0.19843723	     -7.45899175	     -2.16781798	     -1.17923235	     -2.99064499	      1.00628326	     -5.67824104	     12.87502394	     26.86845338	     82.42984053	      0.84067380	     -7.88240065	     16.28161938	     28.04927499	     83.74928036
      0.13333330	     -0.36969472	      1.05445578	      0.81734479	      0.01144733	      1.31835849	      0.04255998	     -0.65573941	     -0.39775108	      3.32579842	      0.54563377	      0.00952311	      7.29894014	     -2.71550947	     -7.46964808	     -0.23555602	      1.08868223	     -7.39413472	      0.45165109	      0.00788280	      5.22716091	      0.61666216	     -7.46964808	     -1.94377399	     -1.07030038	     -2.89543365	      1.01900179	     -5.86282878	     13.90530907	     26.94137233	     80.89569529	      0.87210464	     -7.89441542	     17.08705446	     28.03661240	     82.37532241
      0.15000000	     -0.39887437	      1.03482651	      0.78060195	      0.01273148	      1.31758034	      0.04344672	     -0.67525390	     -0.36211719	      3.43567604	      0.53746227	      0.00938049	      7.26158723	     -2.65239068	     -7.46969012	     -0.21546600	      1.03733497	     -7.29227879	      0.44491224	      0.00776518	      5.22160262	      0.68335643	     -7.46969012	     -1.90802052	     -1.04296955	     -2.89920581	      0.97099316	     -5.84292610	     13.93659557	     26.95407383	     80.91245999	      0.84629812	     -7.88354192	     17.10541709	     28.05070886	     82.39768243
      0.16666670	     -0.53195926	      0.98359485	      0.74820622	      0.01246699	      1.31749941	      0.04389223	     -0.58181023	     -0.30351581	      3.49732409	      0.51422968	      0.00897500	      7.24286406	     -2.45027597	     -7.47288582	     -0.08261371	      0.94026043	     -7.30991133	      0.44926785	      0.00784120	      5.31957848	      1.02663401	     -7.47288582	     -1.70159955	     -0.95545680	     -2.87446421	      0.80040814	     -6.01149421	     14.45516704	     27.34587624	     80.18386797	      0.68205113	     -7.96095455	     17.39563071	     28.28893419	     81.70827790
      0.18333330	     -0.69363901	      0.95753609	      0.62015445	      0.01468275	      1.31417161	      0.04278052	     -0.44946227	     -0.28347580	      4.05052171	      0.52475827	      0.00915876	      7.09776979	     -2.94876570	     -7.47659245	      0.01548099	      0.88690349	     -7.38007062	      0.46071775	      0.00804104	      5.53234588	      1.13852057	     -7.47659245	     -1.28343270	     -0.88416126	     -2.86188090	      0.83968818	     -6.32363601	     16.12459853	     27.20216411	     81.16584732	      0.59418596	     -8.06345598	     18.36045836	     27.99233471	     83.20760847
      0.20000000	     -0.72274303	      0.96883802	      0.55337159	      0.01379222	      1.31636751	      0.04217654	     -0.41837326	     -0.31851985	      4.04987671	      0.53420802	      0.00932369	      7.05188154	     -2.92418026	     -7.47661925	     -0.03358398	      0.88566990	     -7.35939508	      0.46582820	      0.00813024	      5.54766242	      1.14969690	     -7.47661925	     -1.25592870	     -0.85084541	     -2.86663903	      0.84221296	     -6.37458745	     16.11519977	     27.21737631	     81.17594977	      0.54378464	     -8.05484806	     18.36351932	     27.98695241	     83.22779844
      0.21666670	     -0.81730099	      0.94573608	      0.47911297	      0.01316778	      1.31726336	      0.04239647	     -0.31150559	     -0.31207847	      4.00285309	      0.53454525	      0.00932957	      7.07638179	     -2.48101036	     -7.47826530	      0.03253207	      0.86821446	     -7.44174542	      0.46222698	      0.00806738	      5.69257974	      1.36992844	     -7.47826530	     -1.10477538	     -0.74946893	     -2.93771630	      0.80475649	     -6.44479896	     16.13158901	     27.38095835	     80.67384558	      0.40769764	     -7.98951377	     18.34578304	     27.86386210	     82.82409159
